<svg xmlns="http://www.w3.org/2000/svg" viewBox="0 0 512 512" width="512" height="512"><rect width="512" height="512" rx="96" fill="#402D00"/><g fill="#EAC16C" transform="translate(64 64) scale(0.75)"><path d="M426.67 185.47V85.33h-100.14L256 14.72l-70.53 70.61H85.33v100.14L14.72 256l70.61 70.53v100.14h100.14L256 497.28l70.53-70.61h100.14V326.53L497.28 256l-70.61-70.53zm-42.67 123.2V384h-75.09L256 436.91 203.09 384H128v-75.09L75.09 256 128 203.09V128h75.09L256 75.09 309.09 128H384v75.09L436.91 256 384 308.91zM256 128c-70.69 0-128 57.31-128 128s57.31 128 128 128 128-57.31 128-128-57.31-128-128-128zm0 213.33c-47.06 0-85.33-38.27-85.33-85.33s38.27-85.33 85.33-85.33 85.33 38.27 85.33 85.33-38.27 85.33-85.33 85.33z"/></g></svg>
